#N canvas 282 160 1280 746 10;
#X declare -path bin -path abstractions;
#X obj 76 713 declare -path bin -path abstractions;
#X obj 145 69 adc~;
#X obj 93 137 vsl 15 128 0 127 0 0 empty empty empty 0 -9 0 10 -262144
-1 -1 0 1;
#X obj 85 94 env~;
#X obj 172 393 s mode;
#X obj 230 389 s key;
#X obj 724 217 r mode;
#X obj 767 217 r key;
#N canvas 234 309 1173 699 KeyDetect 1;
#X obj 224 21 inlet~;
#X symbolatom 153 654 10 0 0 0 - - -;
#X obj 120 311 essentiaRT2 SpectralWhitening;
#X obj 234 181 t l l;
#X obj 37 458 print 2;
#X obj 82 481 print 1;
#X obj 0 287 zl len;
#X floatatom -1 320 5 0 0 0 - - -;
#X obj 122 344 t b l;
#X obj 447 483 print;
#X obj 127 374 zl reg;
#X floatatom 245 521 5 0 0 0 - - -;
#X floatatom 267 489 5 0 0 0 - - -;
#X obj 231 617 gate;
#X obj 179 623 gate;
#X floatatom 280 520 5 0 0 0 - - -;
#X symbolatom 269 660 10 0 0 0 - - -;
#X obj 203 599 tgl 15 0 empty empty empty 17 7 0 10 -262144 -1 -1 1
1;
#X symbolatom 117 554 10 0 0 0 - - -;
#X floatatom 204 501 5 0 0 0 - - -;
#X obj 491 532 print;
#X obj 272 238 essentiaRT2 SpectralPeaks;
#X obj 178 265 t l l;
#X obj 219 581 ||;
#X obj 278 564 t b f;
#X obj 364 28 block~ 4096 1 1;
#X obj 255 100 essentiaRT2~ 2048 2048 Spectrum;
#X obj 245 545 > 0.5;
#X obj 195 529 > 1;
#X obj 188 459 essentiaRT2 Key;
#X obj 118 687 outlet;
#X obj 277 685 outlet;
#X obj 37 37;
#X obj 189 424 essentiaRT2 HPCP 30 1 size 36 referenceFrequency 440
_aggr mean;
#X connect 0 0 26 0;
#X connect 1 0 30 0;
#X connect 2 0 8 0;
#X connect 3 0 6 0;
#X connect 3 1 21 0;
#X connect 6 0 7 0;
#X connect 8 0 10 0;
#X connect 10 0 33 0;
#X connect 11 0 27 0;
#X connect 13 0 16 0;
#X connect 14 0 1 0;
#X connect 15 0 27 1;
#X connect 16 0 31 0;
#X connect 17 0 13 0;
#X connect 17 0 14 0;
#X connect 19 0 28 1;
#X connect 21 0 22 0;
#X connect 21 0 33 0;
#X connect 21 1 2 2;
#X connect 21 1 33 1;
#X connect 22 0 10 1;
#X connect 22 1 2 1;
#X connect 23 0 17 0;
#X connect 24 0 23 0;
#X connect 24 1 23 1;
#X connect 26 0 3 0;
#X connect 27 0 24 0;
#X connect 28 0 23 0;
#X connect 29 0 14 1;
#X connect 29 0 18 0;
#X connect 29 1 13 1;
#X connect 29 2 11 0;
#X connect 29 3 12 0;
#X connect 29 3 28 0;
#X connect 33 0 29 0;
#X restore 137 155 pd KeyDetect;
#X symbolatom 143 207 10 0 0 0 - - -;
#X symbolatom 212 207 10 0 0 0 - - -;
#X obj 165 290 l;
#X obj 220 293 l;
#X obj 241 259 t b b;
#X obj 309 220 metro 200;
#X obj 314 196 tgl 15 0 empty empty empty 17 7 0 10 -262144 -1 -1 1
1;
#X obj 298 131 loadbang;
#X msg 303 164 1;
#X obj 721 320 pack s s;
#X obj 265 347 tosymbol;
#X obj 177 343 tosymbol;
#X msg 721 339 send /key \$1 \$2;
#X obj 893 250;
#X msg 898 310 send /data 0.5 0.5 100;
#X obj 936 383 print;
#X obj 421 443 r mode;
#X obj 464 443 r key;
#X obj 418 546 pack s s;
#X obj 370 605 sendOSC;
#X msg 418 565 send /key \$1 \$2;
#X msg 364 341 connect 127.0.0.1 4446;
#X obj 673 379 sendOSC;
#X msg 511 333 connect localhost 4444;
#X connect 1 0 3 0;
#X connect 1 0 8 0;
#X connect 1 1 8 0;
#X connect 3 0 2 0;
#X connect 6 0 18 0;
#X connect 7 0 18 1;
#X connect 8 0 9 0;
#X connect 8 1 10 0;
#X connect 9 0 12 1;
#X connect 10 0 11 1;
#X connect 11 0 20 0;
#X connect 12 0 19 0;
#X connect 13 0 11 0;
#X connect 13 1 12 0;
#X connect 14 0 13 0;
#X connect 15 0 14 0;
#X connect 16 0 17 0;
#X connect 16 0 32 0;
#X connect 16 0 30 0;
#X connect 17 0 15 0;
#X connect 18 0 21 0;
#X connect 19 0 5 0;
#X connect 20 0 4 0;
#X connect 21 0 31 0;
#X connect 23 0 24 0;
#X connect 23 0 31 0;
#X connect 25 0 27 0;
#X connect 26 0 27 1;
#X connect 27 0 29 0;
#X connect 29 0 28 0;
#X connect 30 0 28 0;
#X connect 32 0 31 0;
